<?xml version="1.0" encoding="utf-8"?>
<!-- Generator: Adobe Illustrator 21.1.0, SVG Export Plug-In . SVG Version: 6.00 Build 0)  -->
<svg version="1.1" id="Слой_1" xmlns="http://www.w3.org/2000/svg" xmlns:xlink="http://www.w3.org/1999/xlink" x="0px" y="0px"
	 viewBox="0 0 316 174" style="enable-background:new 0 0 316 174;" xml:space="preserve">
<style type="text/css">
	.st0{opacity:0.7;}
	.st1{fill:#384966;}
	.st2{fill:#4141CC;}
	.st3{opacity:0.4;enable-background:new    ;}
	.st4{fill:#F9F7EF;fill-opacity:0.8;}
	.st5{fill-opacity:0.2;}
	.st6{fill-opacity:0.1;}
	.st7{enable-background:new    ;}
	.st8{fill:#FFFFFF;}
	.st9{fill:#E04B67;}
</style>
<g id="arrow">
	<g class="st0">
		<path class="st1" d="M158.7,103.2c-0.2,0.2-0.5,0.3-0.8,0.3s-0.6-0.1-0.8-0.3c-0.4-0.4-0.4-1.1,0-1.6l14-14l-14-14
			c-0.4-0.4-0.4-1.1,0-1.6s1.1-0.4,1.6,0l14.8,14.8c0.4,0.4,0.4,1.1,0,1.6L158.7,103.2z"/>
	</g>
	<g>
		<path class="st1" d="M145.4,103.2c-0.2,0.2-0.5,0.3-0.8,0.3s-0.6-0.1-0.8-0.3c-0.4-0.4-0.4-1.1,0-1.6l14-14l-14-14
			c-0.4-0.4-0.4-1.1,0-1.6s1.1-0.4,1.6,0l14.8,14.8c0.4,0.4,0.4,1.1,0,1.6L145.4,103.2z"/>
	</g>
</g>
<g id="wav">
	<path class="st2" d="M94,20.6H33.5c-5.2,0-9.5,4.3-9.5,9.5v41.6v3V145c0,5.2,4.3,9.5,9.5,9.5h86.1c5.2,0,9.5-4.3,9.5-9.5V74.7v-3
		V56.1L94,20.6z"/>
	<path class="st3" d="M94,20.6l-3.6,32.8c0,5.2,4.3,9.5,9.5,9.5l29.2-6.8L94,20.6z"/>
	<path class="st4" d="M94.1,20.6v25.9c0,5.2,4.3,9.5,9.5,9.5h25.5L94.1,20.6z"/>
	<rect x="23.9" y="120.7" class="st5" width="105.2" height="3"/>
	<path class="st6" d="M23.9,123.7V145c0,5.2,4.3,9.5,9.5,9.5h86.1c5.2,0,9.5-4.3,9.5-9.5v-21.3C128.9,123.7,23.9,123.7,23.9,123.7z"
		/>
	<g class="st7">
		<path class="st8" d="M55.4,131.6c0.6,0,1.1,0.4,1.3,1l2.3,8.8l2.6-8.8c0.2-0.6,0.7-1,1.3-1h1.5c0.6,0,1.2,0.4,1.3,1l2.7,8.8
			l2.4-8.8c0.2-0.6,0.7-1,1.3-1h1c0.6,0,1.1,0.5,1.1,1.1c0,0.1,0,0.2,0,0.3l-3.7,13.1c-0.2,0.6-0.7,1-1.3,1h-1.6
			c-0.4,0-0.9-0.3-1-0.8l-3-9.2l-2.9,9.2c-0.2,0.4-0.6,0.8-1,0.8H58c-0.6,0-1.1-0.4-1.3-1L52.8,133c0-0.1,0-0.2,0-0.3
			c0-0.6,0.5-1.1,1.1-1.1L55.4,131.6L55.4,131.6z"/>
		<path class="st8" d="M78.3,143.9l-1,2.5c-0.2,0.4-0.6,0.7-1.1,0.7h-1.4c-0.6,0-1-0.5-1-1c0-0.1,0-0.3,0.1-0.4l5.6-13.4
			c0.2-0.4,0.6-0.7,1.1-0.7h1.6c0.5,0,0.9,0.3,1.1,0.7l5.6,13.4c0,0.1,0.1,0.2,0.1,0.4c0,0.5-0.4,1-1,1h-1.6c-0.5,0-0.9-0.3-1.1-0.7
			l-1-2.5H78.3z M79.6,140.5h3.5l-1.7-4.4L79.6,140.5z"/>
		<path class="st8" d="M95.5,141.8l3.5-9.5c0.2-0.4,0.6-0.7,1-0.7h1.4c0.6,0,1,0.5,1,1c0,0.1,0,0.2-0.1,0.4l-5.2,13.4
			c-0.2,0.4-0.6,0.7-1.1,0.7h-1.2c-0.5,0-0.9-0.3-1.1-0.7L88.4,133c0-0.1-0.1-0.2-0.1-0.4c0-0.5,0.4-1,1-1h1.6
			c0.5,0,0.9,0.3,1.1,0.7L95.5,141.8z"/>
	</g>
	<g>
		<path class="st8" d="M94.4,74.4v-8c0-0.4-0.2-0.7-0.5-1c-0.3-0.2-0.7-0.3-1.1-0.2l-24,7.7C68.3,73.1,68,73.5,68,74v8l0,0v15.6
			c-1.3-0.9-2.9-1.4-4.6-1.4c-1.8,0-3.5,0.5-4.8,1.5c-1.4,1.1-2.2,2.5-2.2,4s0.8,3,2.2,4c1.3,1,3,1.5,4.8,1.5c1.8,0,3.5-0.5,4.8-1.5
			c1.4-1.1,2.2-2.5,2.2-4V82.9L92,76v13.8c-1.3-0.9-2.9-1.4-4.6-1.4c-1.8,0-3.5,0.5-4.8,1.5c-1.4,1.1-2.2,2.5-2.2,4s0.8,3,2.2,4
			c1.3,1,3,1.5,4.8,1.5s3.5-0.5,4.8-1.5c1.4-1.1,2.2-2.5,2.2-4V74.4L94.4,74.4z M63.3,104.8c-2.5,0-4.6-1.4-4.6-3.1s2.1-3.1,4.6-3.1
			c2.5,0,4.6,1.4,4.6,3.1S65.8,104.8,63.3,104.8z M70.3,80.5v-5.6L92,68v5.6L70.3,80.5z M87.4,97.1c-2.5,0-4.6-1.4-4.6-3.1
			s2.1-3.1,4.6-3.1S92,92.3,92,94C92,95.8,89.8,97.1,87.4,97.1z"/>
	</g>
</g>
<g>
	<path class="st9" d="M257.9,24.9h-60.5c-5.2,0-9.5,4.3-9.5,9.5V76v3v70.3c0,5.2,4.3,9.5,9.5,9.5h86.1c5.2,0,9.5-4.3,9.5-9.5V79v-3
		V60.4L257.9,24.9z"/>
	<path class="st3" d="M257.9,24.9l-3.6,32.8c0,5.2,4.3,9.5,9.5,9.5l29.2-6.8L257.9,24.9z"/>
	<path class="st4" d="M258,24.9v25.9c0,5.2,4.3,9.5,9.5,9.5H293L258,24.9z"/>
	<rect x="187.8" y="125" class="st5" width="105.2" height="3"/>
	<path class="st6" d="M187.8,128v21.3c0,5.2,4.3,9.5,9.5,9.5h86.1c5.2,0,9.5-4.3,9.5-9.5V128H187.8z"/>
	<g class="st7">
		<path class="st8" d="M220,150.4c0,0.6-0.5,1-1,1h-1.5c-0.6,0-1-0.5-1-1v-13.5c0-0.6,0.5-1,1-1h1.9c0.5,0,0.9,0.2,1.2,0.6l4.3,5.9
			l4.1-5.9c0.3-0.4,0.6-0.6,1.1-0.6h1.7c0.6,0,1,0.5,1,1v13.5c0,0.6-0.5,1-1,1h-1.5c-0.6,0-1-0.5-1-1v-8.9l-3.4,4.5
			c-0.4,0.5-0.9,0.8-1.4,0.8s-1-0.3-1.4-0.8l-3.2-4.5v8.9H220z"/>
		<path class="st8" d="M240.5,150.4c0,0.6-0.5,1-1,1h-1.6c-0.6,0-1-0.5-1-1v-13.5c0-0.6,0.5-1,1-1h1.5c0.6,0,1,0.5,1,1v13.5H240.5z"
			/>
		<path class="st8" d="M249.6,135.8c6.2,0,8.7,3.6,8.7,7.7c0,4.3-3,7.9-8.9,7.9c-0.7,0-2.1,0-3.7,0c-0.6,0-1-0.5-1-1V137
			c0-0.6,0.5-1,1-1C247,135.9,248.8,135.8,249.6,135.8z M248.2,148.1c0.5,0,0.8,0,1.3,0c3.1,0,5-1.7,5-4.6c0-2.9-2.1-4.4-5-4.4
			c-0.4,0-0.9,0-1.3,0.1V148.1z"/>
		<path class="st8" d="M264.9,150.4c0,0.6-0.5,1-1,1h-1.5c-0.6,0-1-0.5-1-1v-13.5c0-0.6,0.5-1,1-1h1.5c0.6,0,1,0.5,1,1V150.4z"/>
	</g>
	<g>
		<path class="st8" d="M260.8,81.4v-9.1c0-0.5-0.2-0.8-0.6-1.1c-0.3-0.2-0.8-0.3-1.2-0.2l-27.2,8.7c-0.6,0.2-0.9,0.7-0.9,1.2V90l0,0
			v17.6c-1.5-1-3.3-1.6-5.2-1.6c-2,0-4,0.6-5.4,1.7c-1.6,1.2-2.5,2.8-2.5,4.5s0.9,3.4,2.5,4.5c1.5,1.1,3.4,1.7,5.4,1.7
			s4-0.6,5.4-1.7c1.6-1.2,2.5-2.8,2.5-4.5V91l24.5-7.8v15.6c-1.5-1-3.3-1.6-5.2-1.6c-2,0-4,0.6-5.4,1.7c-1.6,1.2-2.5,2.8-2.5,4.5
			s0.9,3.4,2.5,4.5c1.5,1.1,3.4,1.7,5.4,1.7s4-0.6,5.4-1.7c1.6-1.2,2.5-2.8,2.5-4.5V81.4L260.8,81.4z M225.7,115.8
			c-2.8,0-5.2-1.6-5.2-3.5s2.4-3.5,5.2-3.5s5.2,1.6,5.2,3.5C230.9,114.3,228.6,115.8,225.7,115.8z M233.6,88.3V82l24.5-7.8v6.3
			L233.6,88.3z M252.9,107.1c-2.8,0-5.2-1.6-5.2-3.5s2.4-3.5,5.2-3.5c2.8,0,5.2,1.6,5.2,3.5C258.1,105.6,255.8,107.1,252.9,107.1z"
			/>
	</g>
</g>
</svg>
